# xmcd
#
# Track frame offsets: 
#        150
#        20635
#        36792
#        62572
#        95379
#        111922
#        136687
#        156627
#        178237
#        192772
#        214607
#
# Disc length: 3228 seconds
#
# Revision: 1
# Processed by: cddbd v1.5.2PL0 Copyright (c) Steve Scherf et al.
# Submitted via: ExactAudioCopy v1.0b3
#
DISCID=970c9a0b
DTITLE=Fruteland Jackson - I Claim Nothing But The Blues
DYEAR=2000
DGENRE=Blues
TTITLE0=It's A Bad Night To Be A Stray Dog
TTITLE1=Is That Your Real Name?
TTITLE2=Titanic Blues
TTITLE3=Where's My Daddy?
TTITLE4=Dragon Lady Blues
TTITLE5=Pearlie's Blues
TTITLE6=Mango Bango
TTITLE7=Java Josephine
TTITLE8=Can't Be Yo' Man 
TTITLE9=Goin' Down To King Biscuit
TTITLE10=Alligator Blues
EXTD=
EXTT0=
EXTT1=
EXTT2=
EXTT3=
EXTT4=
EXTT5=
EXTT6=
EXTT7=
EXTT8=
EXTT9=
EXTT10=
PLAYORDER=
